<svg xmlns="http://www.w3.org/2000/svg"  viewBox="0 0 50 50" width="50px" height="50px"><path d="M 19.919922 4.0253906 L 19.015625 4.4511719 L 18.109375 4.8769531 C 18.240375 5.1559531 19.448781 7.6081719 21.550781 7.7011719 C 23.509781 7.7871719 23.544766 7.8903281 23.884766 8.8613281 C 23.981766 9.1463281 24.023484 10.160656 24.021484 11.347656 C 23.674484 10.865656 23.264297 10.383313 22.779297 9.9453125 C 20.756297 8.1173125 18.166062 8.478125 15.664062 8.828125 L 14.808594 8.9453125 C 12.939594 9.1913125 12.334484 7.6710469 12.271484 7.4980469 L 11.326172 7.828125 L 10.380859 8.1484375 C 10.760859 9.2714375 12.227406 11.295687 15.066406 10.929688 L 15.941406 10.808594 C 18.270406 10.484594 20.109453 10.227688 21.439453 11.429688 C 22.703453 12.572688 23.358797 14.144828 23.591797 14.798828 C 23.235797 15.242828 22.900172 15.689719 22.576172 16.136719 C 23.135172 16.228719 23.873734 16.397219 24.677734 16.699219 C 25.838734 15.186219 27.064453 13.84075 28.439453 12.84375 C 31.290453 13.44875 33.876719 13.841516 36.011719 14.103516 L 35.257812 15.923828 L 36.150391 16.294922 C 35.557391 16.653922 35.126 17.204859 35 17.880859 C 34.74 19.278859 35.861859 20.660797 37.505859 20.966797 C 39.149859 21.272797 40.692125 20.388234 40.953125 18.990234 C 40.997125 18.753234 40.988031 18.518109 40.957031 18.287109 L 41.458984 18.496094 C 41.546984 19.655094 41.515687 20.990734 41.304688 22.552734 L 41.275391 22.763672 C 41.268391 22.815672 41.260953 22.885266 41.251953 22.947266 C 36.016953 22.544266 31.497406 20.807219 28.316406 19.199219 C 28.498406 19.415219 28.674891 19.641672 28.837891 19.888672 C 30.049891 21.723672 30.313078 23.992391 29.580078 26.275391 C 28.770078 28.793391 26.762313 30.583594 24.070312 31.183594 C 23.396313 31.333594 22.686891 31.410156 21.962891 31.410156 C 18.683891 31.410156 15.286937 29.876594 12.835938 27.308594 C 8.5419375 29.645594 3.8395781 30.760344 3.7675781 30.777344 L 2.9765625 30.962891 L 3.4960938 31.585938 C 6.0590937 34.660938 14.570578 41.011719 24.517578 41.011719 C 32.916578 41.011719 40.280297 35.090469 42.654297 26.980469 L 42.662109 26.982422 C 42.666109 26.964422 42.671781 26.937969 42.675781 26.917969 C 43.016781 25.736969 43.254094 24.511 43.371094 23.25 L 43.371094 23.246094 L 46.451172 22.398438 L 44.076172 21.181641 L 47.046875 20.091797 L 43.474609 18.734375 C 43.139609 11.954375 39.130547 10.018281 37.185547 9.4882812 C 32.339547 8.1652812 28.761625 9.7471719 26.015625 12.201172 C 26.042625 10.773172 26.021484 8.9142188 25.771484 8.1992188 C 25.029484 6.0802188 23.889672 5.803125 21.638672 5.703125 C 20.928672 5.672125 20.173922 4.5583906 19.919922 4.0253906 z M 14.957031 11.945312 L 15.207031 13.445312 C 15.219031 13.517312 15.423516 14.473469 15.728516 15.480469 C 17.083516 15.712469 18.429219 15.892125 19.949219 16.078125 C 20.482219 15.321125 21.133375 14.330797 21.734375 13.591797 C 18.972375 12.934797 16.484594 12.321594 16.433594 12.308594 L 14.957031 11.945312 z M 36.125 14.117188 C 37.946 14.338188 39.437828 14.464297 40.423828 14.529297 C 40.672828 15.001297 40.8865 15.549016 41.0625 16.166016 L 36.125 14.117188 z M 8.8222656 15.869141 L 9.2578125 17.466797 C 9.3058125 17.643797 10.481641 21.854078 14.181641 25.830078 C 16.282641 28.086078 19.241844 29.412109 21.964844 29.412109 C 22.535844 29.412109 23.098672 29.352422 23.638672 29.232422 C 25.649672 28.784422 27.084687 27.518969 27.679688 25.667969 C 28.231687 23.948969 28.055875 22.332141 27.171875 20.994141 C 25.899875 19.069141 23.503547 18.205109 21.685547 18.037109 C 16.468547 17.557109 10.4975 16.242516 10.4375 16.228516 L 8.8222656 15.869141 z M 38.408203 17.230469 L 39.960938 17.873047 C 39.980938 17.984047 39.988797 18.099797 39.966797 18.216797 C 39.867797 18.746797 39.347688 19.093188 38.804688 18.992188 C 38.261688 18.891188 37.901 18.379609 38 17.849609 C 38.049 17.587609 38.201203 17.370469 38.408203 17.230469 z"/></svg>